<svg width="1280" height="832" viewBox="0 0 1280 832" fill="none" xmlns="http://www.w3.org/2000/svg">
<g clip-path="url(#clip0_21_403)">
<rect width="1280" height="832" fill="#F9F0FF"/>
<rect x="2" y="403" width="1280" height="429" fill="white"/>
<path d="M665.462 180.709V281.523C645.623 274.471 624.264 290.205 602.002 290.205C579.739 290.205 558.38 274.471 538.537 281.523V180.709C538.537 145.66 566.948 117.244 601.997 117.244C637.05 117.245 665.462 145.66 665.462 180.709Z" fill="#CCCCCC"/>
<path d="M525.942 261.196C523.498 263.639 521.395 266.332 519.648 269.214C518.063 261.05 514.095 253.542 508.083 247.53C506.749 246.196 504.585 246.196 503.252 247.53C501.918 248.864 501.918 251.027 503.252 252.361C509.752 258.862 513.407 267.45 513.589 276.614C510.589 272.892 506.33 269.49 500.327 267.833C498.508 267.33 496.626 268.398 496.124 270.217C495.622 272.036 496.689 273.918 498.508 274.419C511.013 277.872 513.54 291.998 513.64 292.587C513.644 292.609 513.65 292.631 513.654 292.653C513.664 292.707 513.676 292.76 513.688 292.813C513.7 292.866 513.713 292.918 513.728 292.969C513.742 293.021 513.758 293.072 513.775 293.123C513.793 293.176 513.812 293.227 513.832 293.279C513.851 293.325 513.868 293.371 513.888 293.416C513.913 293.472 513.94 293.527 513.967 293.581C513.987 293.62 514.006 293.659 514.027 293.697C514.06 293.758 514.097 293.816 514.135 293.874C514.154 293.904 514.171 293.935 514.192 293.964C514.24 294.035 514.291 294.102 514.344 294.169C514.357 294.184 514.368 294.2 514.38 294.215C514.448 294.296 514.519 294.375 514.594 294.45C514.606 294.462 514.619 294.473 514.631 294.485C514.693 294.545 514.757 294.604 514.823 294.659C514.853 294.685 514.886 294.708 514.918 294.733C514.968 294.772 515.018 294.81 515.07 294.846C515.108 294.873 515.148 294.897 515.188 294.923C515.236 294.953 515.284 294.983 515.334 295.012C515.376 295.036 515.42 295.058 515.464 295.081C515.514 295.106 515.564 295.13 515.615 295.154C515.66 295.173 515.705 295.193 515.751 295.211C515.805 295.233 515.86 295.252 515.915 295.271C515.959 295.286 516.003 295.301 516.048 295.315C516.11 295.333 516.172 295.348 516.235 295.363C516.276 295.373 516.316 295.383 516.357 295.391C516.433 295.406 516.51 295.417 516.588 295.426C516.618 295.43 516.647 295.435 516.677 295.438C516.787 295.449 516.897 295.456 517.009 295.456C517.102 295.456 517.195 295.452 517.288 295.445C517.3 295.444 517.312 295.441 517.324 295.44C517.38 295.435 517.434 295.426 517.489 295.419C517.545 295.411 517.6 295.404 517.654 295.393C517.71 295.383 517.765 295.369 517.819 295.356C517.872 295.343 517.925 295.33 517.977 295.315C518.03 295.3 518.081 295.282 518.133 295.264C518.185 295.246 518.237 295.227 518.288 295.207C518.337 295.187 518.384 295.165 518.432 295.143C518.483 295.12 518.535 295.096 518.584 295.07C518.629 295.047 518.673 295.022 518.717 294.997C518.767 294.968 518.816 294.938 518.864 294.907C518.905 294.88 518.946 294.852 518.986 294.824C519.033 294.79 519.08 294.756 519.126 294.72C519.164 294.689 519.201 294.659 519.238 294.627C519.283 294.589 519.325 294.55 519.367 294.51C519.403 294.476 519.437 294.442 519.471 294.407C519.511 294.365 519.55 294.322 519.587 294.279C519.62 294.241 519.652 294.204 519.683 294.165C519.718 294.121 519.751 294.075 519.784 294.029C519.814 293.988 519.844 293.947 519.871 293.904C519.902 293.858 519.93 293.81 519.958 293.762C519.984 293.717 520.011 293.672 520.035 293.627C520.061 293.577 520.084 293.527 520.108 293.476C520.13 293.429 520.153 293.382 520.172 293.333C520.194 293.281 520.212 293.227 520.231 293.174C520.248 293.125 520.266 293.077 520.281 293.027C520.299 292.969 520.312 292.909 520.327 292.85C520.338 292.803 520.352 292.756 520.362 292.709C520.375 292.64 520.384 292.57 520.394 292.5C520.399 292.46 520.407 292.42 520.411 292.379C520.422 292.267 520.428 292.154 520.428 292.039V291.002C520.428 281.568 524.102 272.699 530.772 266.029C532.106 264.694 532.106 262.531 530.772 261.197C529.44 259.861 527.276 259.861 525.942 261.196Z" fill="#90BC42"/>
<path d="M707.876 270.218C707.373 268.399 705.495 267.331 703.673 267.834C697.671 269.491 693.412 272.894 690.411 276.614C690.593 267.45 694.248 258.862 700.748 252.362C702.082 251.028 702.082 248.865 700.748 247.531C699.414 246.197 697.25 246.197 695.917 247.531C689.905 253.542 685.937 261.051 684.352 269.216C682.605 266.333 680.501 263.64 678.057 261.196C676.724 259.863 674.56 259.862 673.226 261.196C671.892 262.531 671.892 264.694 673.227 266.028C679.897 272.699 683.571 281.568 683.571 291.002V292.039C683.571 292.153 683.577 292.266 683.588 292.377C683.593 292.422 683.601 292.464 683.607 292.508C683.616 292.574 683.624 292.641 683.637 292.706C683.647 292.759 683.662 292.81 683.675 292.861C683.688 292.915 683.7 292.97 683.716 293.022C683.733 293.079 683.754 293.133 683.774 293.189C683.79 293.234 683.805 293.28 683.824 293.326C683.848 293.384 683.875 293.442 683.902 293.499C683.92 293.537 683.937 293.576 683.957 293.613C683.988 293.673 684.022 293.731 684.057 293.789C684.076 293.821 684.095 293.853 684.115 293.885C684.154 293.945 684.195 294.003 684.238 294.061C684.257 294.087 684.275 294.113 684.296 294.138C684.343 294.199 684.392 294.257 684.443 294.314C684.461 294.333 684.478 294.353 684.496 294.372C684.552 294.432 684.611 294.49 684.672 294.546C684.686 294.559 684.7 294.572 684.714 294.585C684.781 294.645 684.85 294.701 684.92 294.755C684.93 294.762 684.938 294.769 684.947 294.775C685.026 294.834 685.106 294.889 685.189 294.94C685.19 294.941 685.192 294.942 685.193 294.942C685.715 295.265 686.328 295.455 686.986 295.455C688.351 295.455 689.525 294.653 690.073 293.496C690.078 293.485 690.083 293.474 690.089 293.463C690.124 293.388 690.155 293.311 690.184 293.232C690.193 293.209 690.202 293.186 690.21 293.162C690.235 293.092 690.257 293.021 690.277 292.949C690.287 292.913 690.296 292.876 690.305 292.84C690.319 292.778 690.333 292.716 690.345 292.653C690.349 292.634 690.354 292.616 690.357 292.598C690.459 291.998 692.986 277.872 705.491 274.42C707.31 273.919 708.378 272.037 707.876 270.218Z" fill="#90BC42"/>
<path d="M704.56 300.756H499.439C511.588 292.92 524.694 286.438 538.537 281.523C558.38 274.471 579.74 270.631 602.002 270.631C624.264 270.631 645.624 274.471 665.462 281.523C679.305 286.443 692.411 292.92 704.56 300.756Z" fill="#B27214"/>
<path d="M612.707 270.939C609.163 270.742 605.596 270.631 602.002 270.631C579.74 270.631 558.38 274.471 538.537 281.523C524.693 286.438 511.587 292.92 499.438 300.756H520.848C532.997 292.92 546.103 286.438 559.947 281.523C576.587 275.609 594.296 271.965 612.707 270.939Z" fill="#995C0D"/>
<path d="M549.925 180.709C549.925 151.994 573.285 128.632 601.997 128.632C630.712 128.632 654.073 151.993 654.073 180.709V266.061C637.168 261.532 619.716 259.242 602.001 259.242C584.287 259.242 566.834 261.532 549.925 266.062V180.709H549.925Z" fill="#B3B3B3"/>
<path d="M588.919 179.931C588.919 172.019 582.483 165.582 574.571 165.582H563.638C561.751 165.582 560.222 167.112 560.222 168.999V190.863V209.083C560.222 210.97 561.751 212.5 563.638 212.5C565.525 212.5 567.055 210.97 567.055 209.083V194.28H574.57C578.714 194.28 582.086 197.651 582.086 201.796V209.083C582.086 210.97 583.615 212.5 585.502 212.5C587.389 212.5 588.919 210.97 588.919 209.083V201.796C588.919 197.42 586.947 193.497 583.848 190.863C586.948 188.23 588.919 184.307 588.919 179.931ZM567.055 187.447V172.415H574.571C578.714 172.415 582.086 175.787 582.086 179.931C582.086 184.075 578.715 187.447 574.571 187.447L567.055 187.447Z" fill="#CCCCCC"/>
<path d="M633.984 165.582H623.052C621.165 165.582 619.635 167.112 619.635 168.999V190.863V209.083C619.635 210.97 621.165 212.5 623.052 212.5C624.939 212.5 626.468 210.97 626.468 209.083V194.28H633.984C641.896 194.28 648.333 187.843 648.333 179.931C648.333 172.02 641.896 165.582 633.984 165.582ZM633.984 187.447H626.469V172.415H633.984C638.129 172.415 641.5 175.787 641.5 179.931C641.5 184.075 638.128 187.447 633.984 187.447Z" fill="#CCCCCC"/>
<path d="M603.828 165.582C601.941 165.582 600.411 167.112 600.411 168.999V209.083C600.411 210.97 601.941 212.499 603.828 212.499C605.715 212.499 607.244 210.97 607.244 209.083V168.999C607.244 167.112 605.715 165.582 603.828 165.582Z" fill="#CCCCCC"/>
<path d="M644.362 226.943H559.638C558.128 226.943 556.904 225.719 556.904 224.21C556.904 222.701 558.128 221.477 559.638 221.477H644.362C645.872 221.477 647.096 222.701 647.096 224.21C647.096 225.719 645.872 226.943 644.362 226.943Z" fill="#999999"/>
<path d="M634.736 241.292H569.264C567.755 241.292 566.531 240.068 566.531 238.558C566.531 237.049 567.755 235.825 569.264 235.825H634.736C636.246 235.825 637.47 237.049 637.47 238.558C637.47 240.068 636.245 241.292 634.736 241.292Z" fill="#999999"/>
<g clip-path="url(#clip1_21_403)">
<path d="M-6.70077 271.487C-6.08962 270.191 -4.67719 269.474 -3.26996 269.747C3.98579 271.154 11.6996 274.754 19.6572 280.449C25.8981 284.914 32.3242 290.685 38.757 297.6C38.8079 297.654 38.858 297.709 38.9087 297.764H17.1627C15.0208 295.387 12.9803 293.211 11.1076 291.27C1.59409 281.415 -5.78654 275.301 -5.85982 275.241C-6.96548 274.329 -7.31171 272.784 -6.70077 271.487Z" fill="#47821C"/>
<path d="M-1.68147 248.215C-0.813853 247.074 0.716733 246.667 2.03638 247.227C8.84076 250.113 15.6367 255.239 22.2351 262.464C27.4103 268.131 32.4948 275.112 37.348 283.214C40.5133 288.498 43.1515 293.536 45.2113 297.764H26.013C21.2151 287.361 15.9021 278.128 11.6205 271.27C4.36607 259.651 -1.58131 252.136 -1.64028 252.062C-2.53153 250.94 -2.54888 249.356 -1.68147 248.215Z" fill="#4E901E"/>
<path d="M10.4685 230.494C11.5288 229.529 13.1078 229.407 14.3038 230.197C20.4711 234.27 26.2231 240.546 31.4007 248.849C35.461 255.361 39.1938 263.149 42.4952 271.998C46.7087 283.291 49.111 293.292 50.0816 297.764H31.6346C28.7635 281.446 23.4971 266.064 19.3641 255.581C14.3398 242.838 9.85559 234.368 9.81137 234.284C9.13778 233.019 9.40834 231.458 10.4685 230.494Z" fill="#5EAC24"/>
<path d="M37.3748 297.745C37.3752 297.634 37.3813 297.524 37.393 297.417C38.4659 278.913 36.1102 260.319 33.9414 247.964C31.5753 234.484 28.9115 225.301 28.885 225.21C28.4837 223.838 29.0385 222.361 30.2326 221.622C31.427 220.883 32.9554 221.072 33.9453 222.08C39.0498 227.28 43.3397 234.558 46.696 243.713C49.3283 250.892 51.4055 259.26 52.8699 268.583C55.3223 284.195 55.2252 297.018 55.2161 297.826L37.3748 297.745Z" fill="#6DC82A"/>
<path d="M103.701 271.487C103.09 270.191 101.677 269.474 100.27 269.747C93.0143 271.154 85.3004 274.754 77.3429 280.449C71.1019 284.914 64.6759 290.685 58.2431 297.6C58.1921 297.654 58.142 297.709 58.0913 297.764H79.8373C81.9791 295.387 84.0198 293.211 85.8925 291.27C95.4059 281.415 102.787 275.301 102.86 275.241C103.966 274.329 104.312 272.784 103.701 271.487Z" fill="#4E901E"/>
<path d="M98.6815 248.215C97.8139 247.074 96.2833 246.667 94.9637 247.227C88.1593 250.113 81.3634 255.239 74.7649 262.464C69.5898 268.131 64.5052 275.112 59.652 283.214C56.4868 288.498 53.8486 293.536 51.7886 297.764H70.9868C75.7847 287.361 81.0978 278.128 85.3793 271.27C92.6338 259.651 98.5811 252.136 98.6401 252.062C99.5316 250.94 99.5489 249.356 98.6815 248.215Z" fill="#5EAC24"/>
<path d="M86.5316 230.494C85.4712 229.529 83.8923 229.407 82.6962 230.197C76.529 234.27 70.777 240.546 65.5994 248.849C61.539 255.361 57.8062 263.149 54.5048 271.998C50.2914 283.291 47.8891 293.292 46.9185 297.764H65.3655C68.2365 281.446 73.503 266.064 77.636 255.581C82.6602 242.838 87.1445 234.368 87.1887 234.284C87.8625 233.019 87.5917 231.458 86.5316 230.494Z" fill="#6DC82A"/>
<path d="M59.9632 297.764C59.9632 297.653 59.9573 297.543 59.9462 297.435C58.9299 278.927 61.4408 260.344 63.7302 247.999C66.2279 234.53 69.0116 225.36 69.0391 225.269C69.4584 223.899 68.8943 222.419 67.6699 221.675C66.4447 220.93 64.8714 221.112 63.8486 222.116C58.5728 227.292 54.1252 234.55 50.6294 243.69C47.8876 250.857 45.7111 259.215 44.1608 268.532C41.5643 284.132 41.6039 296.955 41.6091 297.764H59.9634V297.764H59.9632Z" fill="#91DC5A"/>
<path d="M19.0511 297.764H3.5716C2.6333 297.764 1.87256 297.003 1.87256 296.065C1.87256 295.126 2.6333 294.365 3.5716 294.365H19.0511C19.9894 294.365 20.7501 295.126 20.7501 296.065C20.7501 297.003 19.9894 297.764 19.0511 297.764Z" fill="#47821C"/>
<path d="M89.351 297.764H76.8165C75.878 297.764 75.1174 297.003 75.1174 296.065C75.1174 295.126 75.878 294.365 76.8165 294.365H89.351C90.2895 294.365 91.0501 295.126 91.0501 296.065C91.0501 297.003 90.2895 297.764 89.351 297.764Z" fill="#4E901E"/>
<path d="M102.039 297.764H95.3919C94.4534 297.764 93.6929 297.003 93.6929 296.065C93.6929 295.126 94.4534 294.365 95.3919 294.365H102.039C102.977 294.365 103.738 295.126 103.738 296.065C103.738 297.003 102.977 297.764 102.039 297.764Z" fill="#4E901E"/>
<path d="M51.788 291.019C50.8677 291.019 50.1116 290.284 50.0903 289.359C49.9576 283.601 50.2481 277.439 50.9545 271.044C51.0574 270.112 51.8973 269.441 52.8298 269.542C53.7624 269.645 54.4349 270.484 54.3322 271.417C53.6421 277.663 53.3579 283.673 53.4875 289.281C53.5092 290.219 52.7662 290.997 51.8282 291.019C51.8145 291.019 51.8011 291.019 51.788 291.019Z" fill="#5EAC24"/>
<path d="M53.6522 265.446C53.5635 265.446 53.474 265.439 53.3836 265.425C52.4568 265.278 51.825 264.407 51.9722 263.48C52.7811 258.387 53.5345 255.227 53.5661 255.095C53.7851 254.183 54.7021 253.622 55.6142 253.84C56.5265 254.058 57.0888 254.975 56.8703 255.888C56.8632 255.919 56.1143 259.063 55.328 264.013C55.1953 264.849 54.4732 265.446 53.6522 265.446Z" fill="#5EAC24"/>
</g>
<g clip-path="url(#clip2_21_403)">
<path d="M116.159 289.872C116.484 289.182 117.235 288.802 117.983 288.947C121.839 289.695 125.939 291.608 130.169 294.635C133.486 297.008 136.902 300.076 140.321 303.751C140.348 303.78 140.375 303.809 140.402 303.838H128.843C127.705 302.575 126.62 301.418 125.625 300.387C120.568 295.148 116.645 291.899 116.606 291.867C116.018 291.382 115.834 290.561 116.159 289.872Z" fill="#47821C"/>
<path d="M118.827 277.502C119.288 276.895 120.102 276.679 120.803 276.976C124.42 278.51 128.032 281.235 131.539 285.076C134.29 288.088 136.993 291.798 139.572 296.105C141.255 298.914 142.657 301.591 143.752 303.838H133.547C130.997 298.309 128.173 293.401 125.897 289.756C122.041 283.58 118.88 279.586 118.849 279.546C118.375 278.95 118.366 278.108 118.827 277.502Z" fill="#4E901E"/>
<path d="M125.285 268.082C125.849 267.57 126.688 267.505 127.324 267.925C130.602 270.09 133.659 273.425 136.411 277.839C138.569 281.3 140.553 285.44 142.308 290.143C144.548 296.146 145.825 301.462 146.341 303.838H136.535C135.009 295.165 132.21 286.989 130.013 281.417C127.343 274.644 124.959 270.141 124.936 270.097C124.578 269.425 124.721 268.595 125.285 268.082Z" fill="#5EAC24"/>
<path d="M139.587 303.828C139.587 303.769 139.59 303.711 139.596 303.654C140.167 293.819 138.915 283.935 137.762 277.368C136.504 270.203 135.088 265.322 135.074 265.274C134.861 264.545 135.156 263.759 135.79 263.367C136.425 262.974 137.238 263.074 137.764 263.61C140.477 266.374 142.757 270.243 144.541 275.108C145.94 278.925 147.044 283.372 147.823 288.328C149.126 296.626 149.075 303.442 149.07 303.872L139.587 303.828Z" fill="#6DC82A"/>
<path d="M174.841 289.872C174.516 289.182 173.765 288.802 173.017 288.947C169.161 289.695 165.061 291.608 160.831 294.635C157.514 297.008 154.098 300.076 150.679 303.751C150.652 303.78 150.625 303.809 150.598 303.838H162.157C163.295 302.575 164.38 301.418 165.375 300.387C170.432 295.148 174.355 291.899 174.394 291.867C174.982 291.382 175.166 290.561 174.841 289.872Z" fill="#4E901E"/>
<path d="M172.173 277.502C171.712 276.895 170.898 276.679 170.197 276.976C166.58 278.51 162.968 281.235 159.461 285.076C156.71 288.088 154.007 291.798 151.428 296.105C149.745 298.914 148.343 301.591 147.248 303.838H157.453C160.003 298.309 162.827 293.401 165.103 289.756C168.959 283.58 172.12 279.586 172.151 279.546C172.625 278.95 172.634 278.108 172.173 277.502Z" fill="#5EAC24"/>
<path d="M165.715 268.082C165.151 267.57 164.312 267.505 163.676 267.925C160.398 270.09 157.341 273.425 154.589 277.839C152.431 281.3 150.447 285.44 148.692 290.143C146.452 296.146 145.175 301.462 144.659 303.838H154.465C155.991 295.165 158.79 286.989 160.987 281.417C163.657 274.644 166.041 270.141 166.064 270.097C166.422 269.425 166.279 268.595 165.715 268.082Z" fill="#6DC82A"/>
<path d="M151.593 303.838C151.593 303.779 151.59 303.721 151.584 303.664C151.044 293.826 152.378 283.948 153.595 277.387C154.923 270.228 156.403 265.353 156.417 265.305C156.64 264.577 156.34 263.79 155.689 263.395C155.038 262.999 154.202 263.095 153.658 263.629C150.854 266.38 148.49 270.238 146.632 275.096C145.174 278.906 144.018 283.349 143.194 288.301C141.813 296.593 141.835 303.409 141.837 303.839H151.593V303.838H151.593Z" fill="#91DC5A"/>
<path d="M129.847 303.838H121.619C121.12 303.838 120.716 303.434 120.716 302.935C120.716 302.436 121.12 302.032 121.619 302.032H129.847C130.345 302.032 130.75 302.436 130.75 302.935C130.75 303.434 130.345 303.838 129.847 303.838Z" fill="#47821C"/>
<path d="M118.528 303.838H116.963C116.464 303.838 116.06 303.434 116.06 302.935C116.06 302.436 116.464 302.032 116.963 302.032H118.528C119.027 302.032 119.432 302.436 119.432 302.935C119.432 303.434 119.027 303.838 118.528 303.838Z" fill="#47821C"/>
<path d="M167.214 303.838H160.551C160.052 303.838 159.648 303.434 159.648 302.935C159.648 302.436 160.052 302.032 160.551 302.032H167.214C167.712 302.032 168.117 302.436 168.117 302.935C168.117 303.434 167.712 303.838 167.214 303.838Z" fill="#4E901E"/>
<path d="M173.957 303.838H170.424C169.925 303.838 169.521 303.434 169.521 302.935C169.521 302.436 169.925 302.032 170.424 302.032H173.957C174.456 302.032 174.861 302.436 174.861 302.935C174.861 303.434 174.456 303.838 173.957 303.838Z" fill="#4E901E"/>
<path d="M147.248 300.253C146.759 300.253 146.357 299.863 146.345 299.371C146.275 296.311 146.429 293.035 146.805 289.636C146.86 289.141 147.306 288.784 147.802 288.837C148.297 288.892 148.655 289.339 148.6 289.834C148.233 293.154 148.082 296.349 148.151 299.329C148.163 299.828 147.768 300.242 147.269 300.253C147.262 300.253 147.255 300.253 147.248 300.253Z" fill="#5EAC24"/>
<path d="M148.239 286.66C148.192 286.66 148.144 286.657 148.096 286.649C147.603 286.571 147.268 286.108 147.346 285.616C147.776 282.908 148.176 281.229 148.193 281.159C148.309 280.674 148.797 280.375 149.282 280.491C149.767 280.608 150.065 281.095 149.949 281.58C149.945 281.597 149.547 283.268 149.13 285.899C149.059 286.343 148.675 286.66 148.239 286.66Z" fill="#5EAC24"/>
</g>
<g clip-path="url(#clip3_21_403)">
<path d="M901.216 284.64C901.656 283.705 902.674 283.189 903.688 283.386C908.918 284.399 914.477 286.994 920.212 291.098C924.71 294.317 929.342 298.476 933.978 303.459C934.015 303.499 934.051 303.538 934.087 303.578H918.415C916.871 301.864 915.4 300.296 914.051 298.898C907.194 291.795 901.875 287.388 901.822 287.345C901.025 286.688 900.775 285.574 901.216 284.64Z" fill="#47821C"/>
<path d="M904.833 267.867C905.458 267.044 906.562 266.751 907.513 267.154C912.417 269.234 917.315 272.929 922.07 278.136C925.8 282.22 929.465 287.252 932.963 293.091C935.244 296.9 937.145 300.531 938.63 303.577H924.793C921.335 296.08 917.506 289.426 914.42 284.483C909.192 276.109 904.905 270.692 904.863 270.639C904.221 269.83 904.208 268.689 904.833 267.867Z" fill="#4E901E"/>
<path d="M913.59 255.095C914.354 254.4 915.492 254.311 916.354 254.881C920.799 257.816 924.944 262.339 928.676 268.323C931.602 273.017 934.293 278.63 936.672 285.007C939.709 293.146 941.44 300.355 942.14 303.577H928.845C926.775 291.817 922.98 280.731 920.001 273.176C916.38 263.991 913.148 257.887 913.116 257.826C912.631 256.915 912.826 255.79 913.59 255.095Z" fill="#5EAC24"/>
<path d="M932.982 303.564C932.982 303.484 932.986 303.405 932.995 303.327C933.768 289.991 932.07 276.59 930.507 267.686C928.802 257.971 926.882 251.352 926.863 251.287C926.574 250.298 926.974 249.233 927.834 248.701C928.695 248.168 929.797 248.304 930.51 249.031C934.189 252.778 937.281 258.024 939.7 264.622C941.597 269.796 943.094 275.827 944.149 282.546C945.917 293.798 945.847 303.04 945.84 303.623L932.982 303.564Z" fill="#6DC82A"/>
<path d="M980.784 284.64C980.344 283.705 979.326 283.189 978.312 283.386C973.082 284.399 967.523 286.994 961.788 291.098C957.29 294.317 952.658 298.476 948.022 303.459C947.985 303.499 947.949 303.538 947.913 303.578H963.585C965.129 301.864 966.6 300.296 967.949 298.898C974.806 291.795 980.125 287.388 980.178 287.345C980.975 286.688 981.225 285.574 980.784 284.64Z" fill="#4E901E"/>
<path d="M977.167 267.867C976.542 267.044 975.438 266.751 974.487 267.154C969.583 269.234 964.685 272.929 959.93 278.136C956.2 282.22 952.535 287.252 949.037 293.091C946.756 296.9 944.855 300.531 943.37 303.577H957.207C960.665 296.08 964.494 289.426 967.58 284.483C972.808 276.109 977.094 270.692 977.137 270.639C977.779 269.83 977.792 268.689 977.167 267.867Z" fill="#5EAC24"/>
<path d="M968.41 255.095C967.646 254.4 966.508 254.311 965.646 254.881C961.201 257.816 957.055 262.339 953.324 268.323C950.397 273.017 947.707 278.63 945.328 285.007C942.291 293.146 940.56 300.355 939.86 303.577H953.155C955.224 291.817 959.02 280.731 961.999 273.176C965.62 263.991 968.852 257.887 968.884 257.826C969.369 256.915 969.174 255.79 968.41 255.095Z" fill="#6DC82A"/>
<path d="M949.262 303.577C949.262 303.497 949.257 303.418 949.249 303.341C948.517 290.001 950.327 276.608 951.977 267.711C953.777 258.004 955.783 251.394 955.803 251.329C956.105 250.341 955.698 249.275 954.816 248.738C953.933 248.202 952.799 248.333 952.062 249.056C948.26 252.787 945.054 258.018 942.535 264.605C940.558 269.771 938.99 275.795 937.873 282.509C936.001 293.753 936.03 302.995 936.033 303.578H949.262V303.577H949.262Z" fill="#91DC5A"/>
<path d="M919.775 303.577H908.619C907.943 303.577 907.395 303.029 907.395 302.353C907.395 301.676 907.943 301.128 908.619 301.128H919.775C920.452 301.128 921 301.676 921 302.353C921 303.029 920.452 303.577 919.775 303.577Z" fill="#47821C"/>
<path d="M904.429 303.577H902.306C901.63 303.577 901.082 303.029 901.082 302.353C901.082 301.676 901.63 301.128 902.306 301.128H904.429C905.105 301.128 905.653 301.676 905.653 302.353C905.653 303.029 905.105 303.577 904.429 303.577Z" fill="#47821C"/>
<path d="M970.442 303.577H961.408C960.732 303.577 960.184 303.029 960.184 302.353C960.184 301.676 960.732 301.128 961.408 301.128H970.442C971.119 301.128 971.667 301.676 971.667 302.353C971.667 303.029 971.119 303.577 970.442 303.577Z" fill="#4E901E"/>
<path d="M979.587 303.577H974.796C974.12 303.577 973.572 303.029 973.572 302.353C973.572 301.676 974.12 301.128 974.796 301.128H979.587C980.263 301.128 980.811 301.676 980.811 302.353C980.811 303.029 980.263 303.577 979.587 303.577Z" fill="#4E901E"/>
<path d="M943.37 298.717C942.707 298.717 942.162 298.187 942.146 297.52C942.051 293.37 942.26 288.929 942.769 284.32C942.843 283.648 943.449 283.165 944.121 283.237C944.793 283.312 945.278 283.917 945.203 284.589C944.706 289.09 944.501 293.422 944.595 297.464C944.61 298.14 944.075 298.7 943.399 298.716C943.389 298.716 943.379 298.717 943.37 298.717Z" fill="#5EAC24"/>
<path d="M944.713 280.285C944.65 280.285 944.585 280.28 944.52 280.27C943.852 280.164 943.397 279.536 943.503 278.869C944.086 275.198 944.629 272.921 944.651 272.825C944.809 272.168 945.47 271.763 946.127 271.92C946.785 272.078 947.19 272.739 947.033 273.397C947.028 273.419 946.488 275.685 945.921 279.253C945.826 279.855 945.305 280.285 944.713 280.285Z" fill="#5EAC24"/>
</g>
<g clip-path="url(#clip4_21_403)">
<path d="M249.243 256.196C249.243 256.196 232.326 277.121 235.974 297.606C235.974 297.606 253.475 286.313 249.243 256.196Z" fill="#8CC153"/>
<path d="M227.362 254.407C227.011 253.116 225.524 249.25 223.377 248.451C222.518 248.131 221.562 248.339 220.452 249.087L218.705 246.492C221.173 244.83 223.205 245.048 224.475 245.521C228.513 247.03 230.204 252.924 230.383 253.592L227.362 254.404L228.872 253.997L227.362 254.407Z" fill="#8CC153"/>
<path d="M236.064 300H239.321C238.11 295.862 234.704 283.678 232.489 270.513C230.9 261.072 230.227 253.001 230.493 246.522C230.811 238.705 232.47 233.313 235.43 230.491C236.812 229.172 238.458 228.424 240.46 228.2C242.699 227.948 245.381 228.38 248.428 229.484L249.492 226.54C242.539 224.025 237.082 224.593 233.271 228.227C226.94 234.265 225.64 248.666 229.403 271.033C231.504 283.509 234.663 295.125 236.064 300Z" fill="#A0D468"/>
<path d="M220.678 246.366C220.678 246.366 219.291 245.476 216.615 245.476C213.722 245.476 209.323 246.517 203.539 250.848C201.09 252.683 198.643 253.001 197.245 253.001C196.501 253.001 196.052 252.912 196.052 252.912C197.261 257.101 200.106 257.503 201.36 257.503C201.66 257.503 201.868 257.481 201.942 257.481C201.96 257.481 201.969 257.481 201.971 257.485C202.019 257.54 201.523 262.234 203.166 263.878C204.224 264.935 206.547 265.107 208.083 265.107C208.815 265.107 209.369 265.068 209.52 265.068C209.543 265.068 209.557 265.068 209.559 265.073C209.63 265.13 208.717 269.428 214.132 270.992C214.132 270.992 213.386 267.256 216.197 263.505C224.532 252.372 220.678 246.366 220.678 246.366Z" fill="#4A89DC"/>
<path d="M269.998 234.274C268.688 234.274 266.21 233.974 263.763 232.052C258.098 227.598 253.777 226.565 250.987 226.565C248.577 226.565 247.313 227.337 247.313 227.337C247.313 227.337 243.454 233.052 251.255 243.988C253.884 247.675 253.079 251.266 253.079 251.266C258.345 249.879 257.558 245.707 257.629 245.652C257.631 245.65 257.64 245.65 257.654 245.65C257.798 245.65 258.547 245.725 259.497 245.725C260.955 245.725 262.884 245.547 263.829 244.645C265.454 243.093 265.081 238.55 265.127 238.495C265.129 238.492 265.136 238.492 265.15 238.492C265.225 238.492 265.479 238.529 265.848 238.529C267.116 238.529 269.73 238.092 270.948 234.212C270.948 234.212 270.595 234.274 269.998 234.274Z" fill="#5D9CEC"/>
</g>
<g clip-path="url(#clip5_21_403)">
<path d="M802.643 296.546C807.652 309.975 832.583 266.25 832.583 266.25C814.752 265.473 800.095 289.721 802.643 296.546Z" fill="#8CC153"/>
<path d="M806.041 247.913H801.959V303H806.041V247.913Z" fill="#A0D468"/>
<path d="M813.616 224.404C810.99 234.207 806.211 241.445 802.943 240.569C799.676 239.692 799.157 231.037 801.783 221.234C804.41 211.433 809.187 204.195 812.455 205.072C815.721 205.945 816.242 214.603 813.616 224.404Z" fill="#D94452"/>
<path d="M806.218 221.234C808.843 231.037 808.325 239.693 805.058 240.569C801.79 241.445 797.011 234.207 794.385 224.404C791.76 214.603 792.278 205.945 795.546 205.072C798.813 204.195 803.591 211.433 806.218 221.234Z" fill="#EC5564"/>
<path d="M798.225 222.188C805.402 229.363 809.279 237.121 806.888 239.513C804.496 241.903 796.739 238.027 789.564 230.849C782.388 223.674 778.511 215.916 780.902 213.527C783.294 211.134 791.051 215.013 798.225 222.188Z" fill="#D94452"/>
<path d="M791.782 227.009C801.584 229.635 808.819 234.414 807.946 237.683C807.069 240.949 798.414 241.469 788.61 238.843C778.808 236.215 771.572 231.438 772.447 228.169C773.323 224.903 781.978 224.383 791.782 227.009Z" fill="#EC5564"/>
<path d="M788.61 234.408C798.414 231.779 807.069 232.299 807.946 235.568C808.819 238.834 801.584 243.613 791.782 246.239C781.978 248.865 773.323 248.348 772.447 245.079C771.572 241.813 778.808 237.034 788.61 234.408Z" fill="#D94452"/>
<path d="M798.225 251.06C791.051 258.238 783.294 262.117 780.902 259.724C778.509 257.332 782.388 249.574 789.564 242.399C796.739 235.224 804.496 231.345 806.888 233.738C809.279 236.131 805.402 243.886 798.225 251.06Z" fill="#EC5564"/>
<path d="M806.218 252.014C803.591 261.818 798.813 269.053 795.546 268.179C792.278 267.303 791.758 258.648 794.385 248.844C797.011 239.041 801.79 231.806 805.058 232.679C808.325 233.556 808.843 242.214 806.218 252.014Z" fill="#D94452"/>
<path d="M813.616 248.844C816.242 258.648 815.721 267.303 812.455 268.179C809.187 269.053 804.41 261.818 801.783 252.014C799.157 242.213 799.676 233.555 802.943 232.679C806.211 231.806 810.99 239.041 813.616 248.844Z" fill="#EC5564"/>
<path d="M818.437 242.399C825.612 249.574 829.491 257.332 827.098 259.725C824.709 262.117 816.95 258.238 809.776 251.061C802.599 243.886 798.722 236.128 801.113 233.738C803.506 231.345 811.262 235.224 818.437 242.399Z" fill="#D94452"/>
<path d="M819.391 234.408C829.192 237.034 836.429 241.813 835.553 245.079C834.68 248.348 826.022 248.865 816.221 246.239C806.419 243.613 799.181 238.834 800.057 235.568C800.932 232.299 809.587 231.779 819.391 234.408Z" fill="#EC5564"/>
<path d="M816.221 227.009C826.022 224.383 834.68 224.903 835.553 228.169C836.429 231.438 829.191 236.214 819.391 238.843C809.587 241.469 800.932 240.949 800.057 237.683C799.181 234.414 806.419 229.635 816.221 227.009Z" fill="#D94452"/>
<path d="M818.437 230.849C811.262 238.027 803.505 241.903 801.113 239.513C798.722 237.121 802.599 229.363 809.776 222.188C816.95 215.013 824.705 211.134 827.098 213.527C829.491 215.916 825.612 223.674 818.437 230.849Z" fill="#EC5564"/>
<path d="M804.001 246.831C801.274 246.831 798.711 245.77 796.782 243.844C792.803 239.863 792.803 233.388 796.782 229.407C798.711 227.478 801.274 226.417 804.001 226.417C806.727 226.417 809.291 227.478 811.217 229.407C815.198 233.388 815.198 239.863 811.217 243.844C809.291 245.77 806.727 246.831 804.001 246.831Z" fill="#FFCE54"/>
<path d="M812.662 227.963C810.269 225.57 807.135 224.374 804 224.374C800.866 224.374 797.73 225.57 795.339 227.963C790.556 232.748 790.556 240.503 795.339 245.285C797.73 247.678 800.866 248.874 804 248.874C807.135 248.874 810.269 247.678 812.662 245.285C817.444 240.503 817.444 232.748 812.662 227.963ZM809.776 242.399C808.232 243.942 806.182 244.792 804 244.792C801.819 244.792 799.768 243.942 798.227 242.399C795.043 239.214 795.043 234.034 798.227 230.852C799.768 229.309 801.82 228.459 804 228.459C806.182 228.459 808.232 229.309 809.773 230.852C812.958 234.034 812.958 239.214 809.776 242.399Z" fill="#F6BB42"/>
</g>
<g clip-path="url(#clip6_21_403)">
<path d="M350.529 231.963H346.361V245.007H350.529V231.963Z" fill="#8CC153"/>
<path d="M400.816 209.345H396.648V220.58H400.816V209.345Z" fill="#8CC153"/>
<path d="M373.717 218.464H369.549V229.698H373.717V218.464Z" fill="#8CC153"/>
<path d="M396.795 233.772V240.742C396.795 241.892 397.729 242.826 398.879 242.826C400.03 242.826 400.963 241.892 400.963 240.742V233.772H396.795Z" fill="#E6E9ED"/>
<path d="M369.698 249.859C369.698 251.01 370.629 251.943 371.782 251.943C372.933 251.943 373.867 251.01 373.867 249.859V242.887H369.698V249.859Z" fill="#E6E9ED"/>
<path d="M346.507 258.196V265.168C346.507 266.319 347.441 267.253 348.591 267.253C349.745 267.253 350.675 266.319 350.675 265.168V258.196H346.507Z" fill="#E6E9ED"/>
<path d="M408.381 219.952C407.17 218.561 405.424 217.823 403.331 217.823C401.275 217.823 399.837 218.942 398.855 220.221C397.854 218.945 396.404 217.823 394.354 217.823C392.325 217.823 390.555 218.579 389.371 219.949C388.016 221.515 387.5 223.699 387.876 226.272C388.223 228.649 389.441 231.072 391.302 233.092C393.277 235.237 395.822 236.714 398.47 237.245L398.882 237.33L399.294 237.245C401.942 236.711 404.49 235.237 406.468 233.095C408.341 231.069 409.556 228.64 409.889 226.26C410.344 223.004 409.321 221.033 408.381 219.952Z" fill="#EC87C0"/>
<path d="M376.235 226.94C374.178 226.94 372.741 228.06 371.758 229.338C370.757 228.063 369.308 226.94 367.254 226.94C365.228 226.94 363.458 227.697 362.271 229.067C360.919 230.632 360.403 232.817 360.779 235.387C361.127 237.767 362.341 240.189 364.202 242.21C366.18 244.355 368.725 245.828 371.373 246.363L371.782 246.445L372.194 246.363C374.846 245.829 377.394 244.355 379.371 242.213C381.242 240.183 382.456 237.758 382.792 235.374C383.246 232.122 382.224 230.15 381.284 229.07C380.073 227.679 378.325 226.94 376.235 226.94Z" fill="#EC87C0"/>
<path d="M358.094 244.379C356.882 242.984 355.137 242.249 353.044 242.249C350.987 242.249 349.553 243.369 348.567 244.647C347.566 243.372 346.117 242.249 344.066 242.249C342.037 242.249 340.267 243.006 339.083 244.376C337.732 245.938 337.216 248.126 337.591 250.696C337.936 253.076 339.153 255.496 341.015 257.519C342.989 259.664 345.537 261.138 348.183 261.672L348.595 261.754L349.007 261.672C351.655 261.138 354.206 259.664 356.184 257.522C358.054 255.493 359.269 253.067 359.601 250.683C360.059 247.427 359.034 245.459 358.094 244.379Z" fill="#EC87C0"/>
<path d="M315.072 250.192C315.56 250.619 318.16 252.767 321.431 253.219C321.815 253.271 322.398 253.356 323.018 253.448C326.081 253.899 327.07 254.031 327.711 254.031C327.818 254.031 327.921 254.027 328.022 254.021H329.026H329.828L330.857 252.703C331.012 252.551 331.134 252.413 331.223 252.316C331.412 252.102 331.656 251.812 331.967 251.437C332.505 250.79 333.16 249.975 333.74 249.255C334.134 248.767 334.506 248.306 334.754 248.007C336.85 245.456 337.301 242.115 337.372 241.468L337.909 236.454L335.257 236.674C335.159 236.152 335.068 235.801 335.037 235.697L333.38 229.677L329.615 232.612L326.838 227.48L324.659 230.159C324.14 229.628 323.762 229.302 323.655 229.21L317.806 224.301L316.838 231.874C316.82 232.015 316.762 232.515 316.741 233.26L313.317 232.771L314.76 238.423L310 238.822L312.868 244.37C312.92 244.467 313.088 244.785 313.372 245.233L311.273 246.872L315.072 250.192Z" fill="#8CC153"/>
<path d="M342.4 286.272L339.727 283.446C340.896 282.65 341.631 281.994 341.796 281.844L347.423 276.678L340.035 274.738C339.883 274.698 338.906 274.451 337.451 274.286L338.497 270.529L332.306 271.28C332.218 271.289 332.016 271.317 331.723 271.362L331.98 265.824L326.106 267.948C325.941 268.009 325.251 268.269 324.314 268.75L322.801 266.184L319.017 269.519C318.459 270.014 315.627 272.65 314.635 276.281C314.51 276.742 314.312 277.435 314.104 278.17C313.799 279.253 313.451 280.48 313.186 281.463C313.033 282.03 312.923 282.467 312.844 282.793C312.804 282.97 312.749 283.202 312.71 283.48L312.469 284.337L312.688 285.027L312.746 286.061L313.576 286.907C313.732 287.12 313.881 287.288 313.994 287.419C314.214 287.672 314.516 288.005 314.916 288.435C315.612 289.183 316.49 290.104 317.265 290.916C317.793 291.468 318.294 291.99 318.617 292.338C321.193 295.084 324.931 296.091 325.654 296.268L330.554 297.449L330.698 294.474C331.769 294.459 332.507 294.364 332.654 294.343L338.839 293.479L336.023 288.701C336.312 288.603 336.505 288.53 336.578 288.502L342.4 286.272Z" fill="#8CC153"/>
<path d="M409.999 206.09C409.999 204.936 409.065 204.005 407.914 204.005C407.814 204.005 407.713 204.015 407.615 204.027C407.371 204.06 401.546 204.924 392.734 207.527C384.617 209.922 372.344 214.31 359.967 221.621C346.001 229.869 334.753 240.073 326.536 251.949C316.246 266.819 310.729 284.328 310.131 303.995H314.303C314.895 285.225 320.149 268.534 329.92 254.385C337.774 243.012 348.558 233.22 361.972 225.277C373.971 218.176 385.895 213.898 393.783 211.561C402.358 209.022 408.159 208.158 408.217 208.152V208.149C409.224 208.003 409.999 207.136 409.999 206.09Z" fill="#A0D468"/>
</g>
<g clip-path="url(#clip7_21_403)">
<path d="M1120.94 191.836C1115.97 185.133 1107.99 180.788 1099 180.788C1083.92 180.788 1071.7 193.015 1071.7 208.097C1071.7 223.18 1083.92 235.406 1099 235.406C1102.07 235.406 1105.01 234.894 1107.76 233.964C1111.05 235.83 1114.84 236.9 1118.89 236.9C1131.36 236.9 1141.47 226.791 1141.47 214.32C1141.47 202.542 1132.45 192.874 1120.94 191.836Z" fill="#47821C"/>
<path d="M1141.31 297C1135.93 297 1131.57 292.641 1131.57 287.265V165.942C1131.57 160.566 1135.93 156.207 1141.31 156.207C1146.68 156.207 1151.04 160.566 1151.04 165.942V287.265C1151.04 292.641 1146.68 297 1141.31 297Z" fill="#CC7400"/>
<path d="M1141.31 287.265V165.942C1141.31 162.341 1143.27 159.204 1146.17 157.52C1144.74 156.69 1143.08 156.207 1141.31 156.207C1135.93 156.207 1131.57 160.566 1131.57 165.942V287.265C1131.57 292.641 1135.93 297 1141.31 297C1143.08 297 1144.74 296.517 1146.17 295.687C1143.27 294.002 1141.31 290.866 1141.31 287.265Z" fill="#AA6100"/>
<path d="M1224.8 145.202C1226.04 141.766 1226.71 138.066 1226.71 134.207C1226.71 116.204 1212.12 101.609 1194.11 101.609C1176.11 101.609 1161.52 116.204 1161.52 134.207C1161.52 136.277 1161.72 138.299 1162.09 140.261C1143.54 143.466 1129.44 159.618 1129.44 179.075C1129.44 200.836 1147.08 218.478 1168.84 218.478C1188.23 218.478 1204.34 204.461 1207.62 186.008C1211.12 188.263 1215.29 189.576 1219.76 189.576C1232.17 189.576 1242.24 179.514 1242.24 167.102C1242.24 156.423 1234.79 147.491 1224.8 145.202Z" fill="#4E901E"/>
<path d="M1210.01 136.031C1210.01 123.326 1205.61 111.331 1197.9 101.835C1196.65 101.691 1195.39 101.609 1194.11 101.609C1176.11 101.609 1161.52 116.203 1161.52 134.206C1161.52 136.277 1161.72 138.298 1162.09 140.261C1143.54 143.465 1129.44 159.617 1129.44 179.075C1129.44 195.771 1139.83 210.032 1154.49 215.771C1160.99 208.569 1165.32 199.376 1166.42 189.225C1191.25 184.26 1210.01 162.297 1210.01 136.031Z" fill="#47821C"/>
<path d="M1175.69 206.823C1174.13 206.823 1172.7 205.795 1172.25 204.221C1171.72 202.323 1172.82 200.35 1174.72 199.815C1182.6 197.594 1188.61 190.949 1190.04 182.887C1190.39 180.945 1192.24 179.648 1194.18 179.996C1196.12 180.34 1197.42 182.194 1197.07 184.136C1195.17 194.876 1187.15 203.729 1176.66 206.689C1176.34 206.779 1176.01 206.823 1175.69 206.823Z" fill="#47821C"/>
<path d="M1119.3 151.251C1113.66 151.251 1108.35 152.678 1103.71 155.189C1098.9 151.611 1092.95 149.492 1086.5 149.492C1086.25 149.492 1086.01 149.504 1085.77 149.511C1082.55 142.469 1075.44 137.574 1067.19 137.574C1055.91 137.574 1046.76 146.721 1046.76 158.004C1046.76 165.88 1051.22 172.711 1057.75 176.121C1057.7 176.851 1057.66 177.587 1057.66 178.331C1057.66 194.258 1070.57 207.17 1086.5 207.17C1089.41 207.17 1092.21 206.735 1094.86 205.933C1100.87 212.637 1109.59 216.86 1119.3 216.86C1137.42 216.86 1152.1 202.173 1152.1 184.056C1152.1 165.939 1137.42 151.251 1119.3 151.251Z" fill="#5EAC24"/>
<path d="M1082.29 188.099C1075.76 184.689 1071.3 177.859 1071.3 169.982C1071.3 159.417 1079.32 150.726 1089.6 149.662C1088.58 149.553 1087.55 149.491 1086.5 149.491C1086.25 149.491 1086.01 149.503 1085.77 149.509C1082.55 142.467 1075.44 137.573 1067.19 137.573C1055.91 137.573 1046.76 146.719 1046.76 158.002C1046.76 165.879 1051.22 172.71 1057.75 176.119C1057.7 176.85 1057.66 177.585 1057.66 178.33C1057.66 194.257 1070.57 207.168 1086.5 207.168C1086.88 207.168 1087.26 207.16 1087.63 207.146C1084.22 202.407 1082.2 196.596 1082.2 190.31C1082.2 189.565 1082.24 188.829 1082.29 188.099Z" fill="#4E901E"/>
<path d="M1119.3 151.251C1113.66 151.251 1108.35 152.678 1103.71 155.189C1098.9 151.611 1092.95 149.492 1086.5 149.492C1086.25 149.492 1086.01 149.504 1085.77 149.511C1082.55 142.469 1075.44 137.574 1067.19 137.574C1065.06 137.574 1063 137.903 1061.06 138.511C1065.34 161.334 1085.41 178.661 1109.45 178.661C1113.27 178.661 1117.01 178.234 1120.65 177.385C1129.31 184.774 1140.06 189.226 1151.54 190.109C1151.9 188.147 1152.1 186.125 1152.1 184.056C1152.1 165.938 1137.42 151.251 1119.3 151.251Z" fill="#4E901E"/>
<path d="M1174.23 100.946C1174.42 99.5046 1174.53 98.0356 1174.53 96.5402C1174.53 78.5693 1159.96 64 1141.99 64C1124.61 64 1110.41 77.6318 1109.5 94.7882C1109.48 94.7882 1109.47 94.7868 1109.45 94.7868C1090.32 94.7868 1074.82 110.293 1074.82 129.421C1074.82 148.55 1090.32 164.056 1109.45 164.056C1114.9 164.056 1120.05 162.796 1124.63 160.558C1131.89 169.761 1143.13 175.676 1155.77 175.676C1177.66 175.676 1195.41 157.926 1195.41 136.03C1195.41 120.803 1186.82 107.588 1174.23 100.946Z" fill="#6DC82A"/>
<path d="M1126.44 114.621C1126.46 114.621 1126.47 114.623 1126.49 114.623C1127.4 97.4663 1141.6 83.8345 1158.98 83.8345C1164.05 83.8345 1168.85 84.9945 1173.13 87.0624C1169.07 73.715 1156.67 64.0005 1141.99 64.0005C1124.61 64.0005 1110.41 77.6323 1109.5 94.7887C1109.48 94.7887 1109.47 94.7873 1109.45 94.7873C1090.32 94.7873 1074.82 110.294 1074.82 129.422C1074.82 142.829 1082.44 154.447 1093.58 160.204C1092.44 156.761 1091.81 153.084 1091.81 149.255C1091.81 130.128 1107.31 114.621 1126.44 114.621Z" fill="#5EAC24"/>
<path d="M1155.77 164.965C1153.79 164.965 1152.2 163.366 1152.2 161.395C1152.2 159.423 1153.79 157.824 1155.77 157.824C1167.78 157.824 1177.56 148.048 1177.56 136.031C1177.56 134.059 1179.16 132.46 1181.13 132.46C1183.1 132.46 1184.7 134.059 1184.7 136.031C1184.7 151.985 1171.72 164.965 1155.77 164.965Z" fill="#5EAC24"/>
<path d="M1106.58 157.036C1111.59 157.036 1115.65 152.976 1115.65 147.967C1115.65 142.958 1111.59 138.898 1106.58 138.898C1101.57 138.898 1097.51 142.958 1097.51 147.967C1097.51 152.976 1101.57 157.036 1106.58 157.036Z" fill="#5EAC24"/>
<path d="M1120.23 207.139C1125.24 207.139 1129.3 203.079 1129.3 198.07C1129.3 193.061 1125.24 189.001 1120.23 189.001C1115.22 189.001 1111.16 193.061 1111.16 198.07C1111.16 203.079 1115.22 207.139 1120.23 207.139Z" fill="#4E901E"/>
<path d="M1152.11 122.23C1157.11 122.23 1161.18 118.17 1161.18 113.161C1161.18 108.152 1157.11 104.092 1152.11 104.092C1147.1 104.092 1143.04 108.152 1143.04 113.161C1143.04 118.17 1147.1 122.23 1152.11 122.23Z" fill="#5EAC24"/>
<path d="M1161.17 136.22C1163.08 136.22 1164.63 134.671 1164.63 132.761C1164.63 130.851 1163.08 129.303 1161.17 129.303C1159.26 129.303 1157.71 130.851 1157.71 132.761C1157.71 134.671 1159.26 136.22 1161.17 136.22Z" fill="#5EAC24"/>
<path d="M1129.3 138C1131.21 138 1132.76 136.452 1132.76 134.542C1132.76 132.632 1131.21 131.083 1129.3 131.083C1127.39 131.083 1125.84 132.632 1125.84 134.542C1125.84 136.452 1127.39 138 1129.3 138Z" fill="#5EAC24"/>
<path d="M1139.58 155.711C1141.49 155.711 1143.04 154.162 1143.04 152.252C1143.04 150.342 1141.49 148.793 1139.58 148.793C1137.67 148.793 1136.12 150.342 1136.12 152.252C1136.12 154.162 1137.67 155.711 1139.58 155.711Z" fill="#5EAC24"/>
<path d="M1095.98 190.379C1097.89 190.379 1099.43 188.83 1099.43 186.92C1099.43 185.01 1097.89 183.462 1095.98 183.462C1094.07 183.462 1092.52 185.01 1092.52 186.92C1092.52 188.83 1094.07 190.379 1095.98 190.379Z" fill="#4E901E"/>
<path d="M1239.29 297C1240.86 294.483 1241.77 291.514 1241.77 288.332C1241.77 280.222 1235.89 273.488 1228.16 272.152C1226.63 259.675 1216.01 250.009 1203.12 250.009C1189.18 250.009 1177.89 261.305 1177.89 275.24C1177.89 275.69 1177.9 276.137 1177.92 276.58C1172.34 279.036 1168.45 284.609 1168.45 291.096C1168.45 293.183 1168.85 295.174 1169.59 296.999L1239.29 297Z" fill="#6DC82A"/>
<path d="M1194.18 284.198C1194.15 283.755 1194.14 283.308 1194.14 282.858C1194.14 268.923 1205.44 257.627 1219.37 257.627C1220 257.627 1220.63 257.657 1221.25 257.702C1216.66 252.96 1210.24 250.009 1203.12 250.009C1189.18 250.009 1177.89 261.306 1177.89 275.241C1177.89 275.691 1177.9 276.137 1177.92 276.581C1172.34 279.036 1168.45 284.61 1168.45 291.097C1168.45 293.184 1168.85 295.174 1169.59 297H1184.8C1185.42 291.258 1189.1 286.434 1194.18 284.198Z" fill="#5EAC24"/>
<path d="M1212.18 288.116C1217.19 288.116 1221.25 284.056 1221.25 279.047C1221.25 274.038 1217.19 269.978 1212.18 269.978C1207.17 269.978 1203.11 274.038 1203.11 279.047C1203.11 284.056 1207.17 288.116 1212.18 288.116Z" fill="#5EAC24"/>
<path d="M1230.71 285.967C1232.62 285.967 1234.17 284.418 1234.17 282.508C1234.17 280.598 1232.62 279.05 1230.71 279.05C1228.8 279.05 1227.25 280.598 1227.25 282.508C1227.25 284.418 1228.8 285.967 1230.71 285.967Z" fill="#5EAC24"/>
<path d="M1113.3 296.854C1113.98 295.117 1114.35 293.228 1114.35 291.252C1114.35 282.708 1107.42 275.782 1098.88 275.782C1098.12 275.782 1097.37 275.84 1096.64 275.946C1093.49 266.584 1084.65 259.839 1074.23 259.839C1061.16 259.839 1050.58 270.427 1050.58 283.488C1050.58 288.449 1052.11 293.051 1054.72 296.854H1113.3V296.854Z" fill="#6DC82A"/>
<path d="M1088.68 267.459C1089.73 267.459 1090.77 267.531 1091.79 267.665C1087.46 262.862 1081.2 259.839 1074.23 259.839C1061.16 259.839 1050.58 270.427 1050.58 283.488C1050.58 288.449 1052.11 293.051 1054.72 296.854H1065.74C1065.28 295.014 1065.03 293.09 1065.03 291.108C1065.03 278.047 1075.62 267.459 1088.68 267.459Z" fill="#5EAC24"/>
<path d="M1079 285.967C1080.91 285.967 1082.46 284.418 1082.46 282.508C1082.46 280.598 1080.91 279.05 1079 279.05C1077.09 279.05 1075.54 280.598 1075.54 282.508C1075.54 284.418 1077.09 285.967 1079 285.967Z" fill="#5EAC24"/>
<path d="M1095.75 291.575C1097.66 291.575 1099.21 290.027 1099.21 288.117C1099.21 286.206 1097.66 284.658 1095.75 284.658C1093.84 284.658 1092.29 286.206 1092.29 288.117C1092.29 290.027 1093.84 291.575 1095.75 291.575Z" fill="#5EAC24"/>
</g>
</g>
<defs>
<clipPath id="clip0_21_403">
<rect width="1280" height="832" fill="white"/>
</clipPath>
<clipPath id="clip1_21_403">
<rect width="111" height="111" fill="white" transform="translate(-7 204)"/>
</clipPath>
<clipPath id="clip2_21_403">
<rect width="59" height="59" fill="white" transform="translate(116 254)"/>
</clipPath>
<clipPath id="clip3_21_403">
<rect width="80" height="80" fill="white" transform="translate(901 236)"/>
</clipPath>
<clipPath id="clip4_21_403">
<rect width="75" height="75" fill="white" transform="translate(196 225)"/>
</clipPath>
<clipPath id="clip5_21_403">
<rect width="98" height="98" fill="white" transform="translate(755 205)"/>
</clipPath>
<clipPath id="clip6_21_403">
<rect width="100" height="100" fill="white" transform="translate(310 204)"/>
</clipPath>
<clipPath id="clip7_21_403">
<rect width="233" height="233" fill="white" transform="translate(1028 64)"/>
</clipPath>
</defs>
</svg>
