<?xml version="1.0" encoding="iso-8859-1"?>
<!-- Uploaded to: SVG Repo, www.svgrepo.com, Generator: SVG Repo Mixer Tools -->
<svg height="800px" width="800px" version="1.1" id="Layer_1" xmlns="http://www.w3.org/2000/svg" xmlns:xlink="http://www.w3.org/1999/xlink" 
	 viewBox="0 0 512 512" xml:space="preserve">
<path style="fill:#7DC86E;" d="M430.693,108.047c-4.591-2.309-10.202-0.446-12.492,4.146l-82.353,164.194l-17.013-51.528
	c-1.609-4.891-6.828-7.583-11.756-5.919c-4.882,1.609-7.538,6.873-5.919,11.756l22.867,69.259l-58.544,116.725
	c-2.309,4.591-0.455,10.192,4.146,12.492c1.336,0.673,2.764,0.992,4.164,0.992c3.41,0,6.701-1.882,8.328-5.137l63.665-126.935
	l64.531-21.499c4.874-1.627,7.51-6.901,5.892-11.783c-1.627-4.874-6.864-7.483-11.783-5.892l-46.815,15.597l77.226-153.975
	C437.148,115.948,435.293,110.347,430.693,108.047z"/>
<g>
	<path style="fill:#9BF57D;" d="M284.598,164.652c-14.311,34.851-0.902,75.099,31.454,94.401c2.635,1.572,6.239,0.365,7.404-2.472
		c14.311-34.851,0.902-75.099-31.454-94.401C289.367,160.608,285.763,161.813,284.598,164.652z"/>
	<path style="fill:#9BF57D;" d="M457.601,246.685c-27.559-10.584-58.899-0.243-74.762,24.608c-1.856,2.908-0.86,6.952,2.361,8.189
		c27.559,10.584,58.899,0.243,74.762-24.608C461.82,251.966,460.822,247.922,457.601,246.685z"/>
</g>
<path style="fill:#F5C882;" d="M353.784,324.592c-0.659-12.586-11.955-22.023-24.56-22.023H15.516
	C6.948,302.568,0,309.516,0,318.085V442.22c0,8.57,6.948,15.516,15.516,15.516h16.94c9.19,0,18.174,2.721,25.822,7.818
	l23.096,15.397c7.646,5.098,16.631,7.818,25.822,7.818h100.955c12.174,0,23.269-8.761,24.482-20.876
	c1.395-13.933-9.508-25.676-23.154-25.676h14.19c12.175,0,23.269-8.761,24.482-20.876c1.394-13.933-9.508-25.676-23.154-25.676
	h85.567c12.174,0,23.269-8.761,24.482-20.876c1.394-13.933-9.508-25.676-23.154-25.676h17.369
	C342.803,349.119,353.784,338.137,353.784,324.592z"/>
<g>
	<path style="fill:#F5AF73;" d="M207.864,470.15H107.198c-9.19,0-18.176-2.721-25.823-7.818l-23.096-15.397
		c-7.647-5.098-16.633-7.818-25.823-7.818H0v3.104c0,8.569,6.947,15.516,15.516,15.516h16.94c9.189,0,18.173,2.72,25.82,7.817
		l23.097,15.398c7.647,5.097,16.633,7.818,25.823,7.818H208.15c0.114,0,0.228-0.001,0.341-0.002
		C220.494,488.606,219.867,470.15,207.864,470.15z"/>
	<path style="fill:#F5AF73;" d="M204.822,423.599h18.62c5.142,0,9.31,4.169,9.31,9.31l0,0c0,5.142-4.169,9.31-9.31,9.31h-18.62
		c-5.142,0-9.31-4.169-9.31-9.31l0,0C195.512,427.768,199.681,423.599,204.822,423.599z"/>
	<path style="fill:#F5AF73;" d="M214.132,377.049h93.101c5.141,0,9.31,4.169,9.31,9.31l0,0c0,5.142-4.169,9.31-9.31,9.31h-93.101
		c-5.142,0-9.31-4.169-9.31-9.31l0,0C204.822,381.218,208.991,377.049,214.132,377.049z"/>
	<path style="fill:#F5AF73;" d="M223.443,330.498h102.411c5.142,0,9.31,4.169,9.31,9.31l0,0c0,5.142-4.169,9.31-9.31,9.31H223.443
		c-5.142,0-9.31-4.169-9.31-9.31l0,0C214.132,334.667,218.301,330.498,223.443,330.498z"/>
</g>
<g>
	<path style="fill:#FFE9C3;" d="M473.266,169.074c13.217,6.611,29.29,1.257,35.901-11.96c6.611-13.217,1.257-29.29-11.96-35.901
		c-6.315-3.158-28.438-7.398-49.827-10.966l-12.034,26.234C450.809,151.228,467.051,165.966,473.266,169.074z"/>
	<path style="fill:#FFE9C3;" d="M349.094,166.695c8.141,12.334,24.737,15.733,37.07,7.592c5.892-3.889,20.625-20.928,34.41-37.669
		l-16.702-23.539c-20.501,6.02-41.386,12.715-47.186,16.544C344.353,137.765,340.954,154.362,349.094,166.695z"/>
	<path style="fill:#FFE9C3;" d="M410.783,99.267l28.853-0.752c5.129-21.069,9.928-43.078,9.506-50.126
		c-0.882-14.752-13.557-25.994-28.307-25.111c-14.751,0.883-25.994,13.556-25.111,28.307
		C396.138,58.523,403.306,79.25,410.783,99.267z"/>
</g>
<g>
	<path style="fill:#FFF5DC;" d="M379.52,62.353c-13.217-6.611-29.29-1.257-35.901,11.96c-6.611,13.217-1.257,29.29,11.96,35.901
		c6.315,3.158,28.438,7.398,49.827,10.966l12.034-26.234C401.977,80.201,385.736,65.463,379.52,62.353z"/>
	<path style="fill:#FFF5DC;" d="M503.692,64.732c-8.141-12.334-24.737-15.733-37.071-7.592c-5.892,3.889-20.625,20.928-34.41,37.669
		l16.702,23.539c20.501-6.02,41.386-12.715,47.186-16.544C508.433,93.662,511.832,77.066,503.692,64.732z"/>
	<path style="fill:#FFF5DC;" d="M442.003,132.162l-28.853,0.752c-5.129,21.069-9.928,43.078-9.506,50.126
		c0.882,14.752,13.557,25.994,28.307,25.111c14.751-0.883,25.994-13.556,25.111-28.307
		C456.648,172.904,449.48,152.177,442.003,132.162z"/>
</g>
<circle style="fill:#FFDC64;" cx="426.426" cy="115.736" r="24.096"/>
</svg>